<svg xmlns="http://www.w3.org/2000/svg" xmlns:xlink="http://www.w3.org/1999/xlink" version="1.1" x="0px" y="0px" viewBox="0 0 1042 1302.5" style="enable-background:new 0 0 1042 1042;" xml:space="preserve"><g><path d="M735.6,68H308.4c-36.6,0-66.4,29.8-66.4,66.4v773.1c0,36.6,29.8,66.4,66.4,66.4h427.1c36.6,0,66.4-29.8,66.4-66.4V134.4   C802,97.8,772.2,68,735.6,68z M767,907.6c0,17.3-14.1,31.4-31.4,31.4H308.4c-17.3,0-31.4-14.1-31.4-31.4v-50.1h206.2   c3.5,17.7,19.1,31,37.8,31s34.3-13.3,37.8-31H767V907.6z M497.5,850c0-13,10.5-23.5,23.5-23.5s23.5,10.5,23.5,23.5   S534,873.5,521,873.5S497.5,863,497.5,850z M767,842.5H558.8c-3.5-17.7-19.1-31-37.8-31s-34.3,13.3-37.8,31H277v-642h490V842.5z    M767,185.5H277v-51.1c0-17.3,14.1-31.4,31.4-31.4h427.1c17.3,0,31.4,14.1,31.4,31.4V185.5z"/><rect x="460" y="142.5" width="124" height="15"/><path d="M522.4,407.3c0.2,0,0.3,0,0.5,0c59.9,0,116.3,23.3,158.8,65.6l24.7-24.8c-49.1-48.9-114.2-75.8-183.5-75.8   c-0.2,0-0.4,0-0.6,0c-69.5,0.1-134.7,27.3-183.7,76.5l24.8,24.7C405.8,430.9,462.3,407.4,522.4,407.3z"/><path d="M393.3,506.9l24.8,24.7c57.4-57.7,151.1-57.9,208.8-0.4l24.7-24.8C580.3,435.3,464.4,435.5,393.3,506.9z"/><path d="M454.1,571.2l24.8,24.7c24-24.1,63.2-24.2,87.3-0.2l24.7-24.8C553.1,533.3,491.7,533.4,454.1,571.2z"/><circle cx="523.1" cy="631.2" r="21.1"/></g><text x="0" y="1057" fill="#000000" font-size="5px" font-weight="bold" font-family="'Helvetica Neue', Helvetica, Arial-Unicode, Arial, Sans-serif">Created by Aulia Rahman</text><text x="0" y="1062" fill="#000000" font-size="5px" font-weight="bold" font-family="'Helvetica Neue', Helvetica, Arial-Unicode, Arial, Sans-serif">from the Noun Project</text></svg>