<svg xmlns="http://www.w3.org/2000/svg" xmlns:xlink="http://www.w3.org/1999/xlink" version="1.1" x="0px" y="0px" viewBox="0 0 100 125" enable-background="new 0 0 100 100" xml:space="preserve"><title>Line/T&amp;C</title><desc>Created with Sketch.</desc><g><rect x="38" y="62" width="16" height="4"/><path d="M72.641,32.72l-13.4-13.4C58.373,18.474,57.211,18,56,18H32c-3.313,0-6,2.687-6,6v52c0,3.313,2.687,6,6,6h36   c3.313,0,6-2.687,6-6V36C73.995,34.771,73.507,33.592,72.641,32.72z M58,23.72L68.28,34h-6.96C59.48,33.978,58,32.48,58,30.64   V23.72z M70,76c0,1.104-0.896,2-2,2H32c-1.104,0-2-0.896-2-2V24c0-1.104,0.896-2,2-2h22v8.64c-0.011,1.948,0.756,3.82,2.13,5.202   S59.371,38,61.32,38H70V76z"/><rect x="38" y="46" width="24" height="4"/><rect x="38" y="54" width="24" height="4"/></g><text x="0" y="115" fill="#000000" font-size="5px" font-weight="bold" font-family="'Helvetica Neue', Helvetica, Arial-Unicode, Arial, Sans-serif">Created by Comeheresailartis.t</text><text x="0" y="120" fill="#000000" font-size="5px" font-weight="bold" font-family="'Helvetica Neue', Helvetica, Arial-Unicode, Arial, Sans-serif">from the Noun Project</text></svg>